<?xml version="1.0" standalone="no"?>
<!DOCTYPE svg PUBLIC "-//W3C//DTD SVG 20010904//EN"
 "http://www.w3.org/TR/2001/REC-SVG-20010904/DTD/svg10.dtd">
<svg version="1.0" xmlns="http://www.w3.org/2000/svg"
 width="142.000000pt" height="142.000000pt" viewBox="0 0 142.000000 142.000000"
 preserveAspectRatio="xMidYMid meet">
<metadata>
Created by potrace 1.11, written by Peter Selinger 2001-2013
</metadata>
<g transform="translate(0.000000,142.000000) scale(0.100000,-0.100000)"
fill="#000000" stroke="none">
<path d="M248 1323 c-10 -2 -18 -8 -18 -13 0 -5 -9 -12 -20 -15 -11 -3 -20
-12 -20 -20 0 -7 -6 -15 -12 -17 -10 -4 -14 -125 -16 -551 -3 -605 -5 -587 61
-628 31 -19 49 -19 502 -17 397 3 474 5 493 18 12 8 22 20 22 27 0 6 6 13 13
15 9 4 12 127 12 570 0 552 -1 566 -20 588 -44 49 -54 50 -532 49 -246 -1
-456 -3 -465 -6z m839 -177 c12 -12 11 -266 -1 -274 -16 -10 -736 -10 -742 0
-3 4 -5 45 -6 91 0 171 1 177 21 185 26 9 718 8 728 -2z m-621 -481 c14 -18
10 -93 -5 -108 -14 -14 -88 -16 -105 -3 -14 10 -19 42 -17 94 1 13 10 26 22
30 32 12 93 4 105 -13z m620 12 c8 -4 12 -381 5 -432 -1 -10 -120 -15 -122 -5
-1 3 -2 101 -3 219 -1 196 0 214 16 220 22 8 91 7 104 -2z m-311 -7 c10 -17 8
-101 -3 -112 -13 -13 -94 -17 -109 -5 -14 10 -18 108 -6 120 10 11 111 8 118
-3z m-307 -317 c11 -24 8 -91 -5 -104 -5 -5 -34 -9 -64 -7 l-54 3 -3 49 c-5
71 -1 76 62 76 43 0 57 -4 64 -17z m310 -51 l3 -63 -63 3 -63 3 -3 54 c-4 65
4 72 73 69 l50 -3 3 -63z"/>
</g>
</svg>
